<?xml version="1.0" standalone="no"?>
<!DOCTYPE svg PUBLIC "-//W3C//DTD SVG 1.1//EN" "http://www.w3.org/Graphics/SVG/1.1/DTD/svg11.dtd" >
<svg xmlns="http://www.w3.org/2000/svg" xmlns:xlink="http://www.w3.org/1999/xlink" version="1.1">
<metadata></metadata>
<defs>
<font id="saira_extracondensedregular" horiz-adv-x="868" >
<font-face units-per-em="2048" ascent="1638" descent="-410" />
<missing-glyph horiz-adv-x="329" />
<glyph unicode="&#xfb01;" horiz-adv-x="831" d="M35 926v118h121v173q0 139 26.5 202.5t86 83t180.5 19.5v-107q-68 0 -100 -12t-45 -47t-13 -109v-203h158v-118h-158v-926h-135v926h-121zM587 1356v166h142v-166h-142zM589 0v1044h136v-1044h-136z" />
<glyph unicode="&#xfb02;" horiz-adv-x="831" d="M35 926v118h121v173q0 139 26.5 202.5t86 83t180.5 19.5v-107q-68 0 -100 -12t-45 -47t-13 -109v-203h158v-118h-158v-926h-135v926h-121zM589 0v1522h136v-1522h-136z" />
<glyph horiz-adv-x="0" />
<glyph unicode="&#xd;" horiz-adv-x="329" />
<glyph horiz-adv-x="0" />
<glyph horiz-adv-x="0" />
<glyph unicode=" "  horiz-adv-x="329" />
<glyph unicode="&#x09;" horiz-adv-x="329" />
<glyph unicode="&#xa0;" horiz-adv-x="329" />
<glyph unicode="!" horiz-adv-x="380" d="M111 1169v240h159v-240q0 -188 -32 -786h-93q-34 571 -34 786zM113 0v178h155v-178h-155z" />
<glyph unicode="&#x22;" horiz-adv-x="546" d="M82 1253v156h135v-156l-18 -344h-97zM330 1253v156h135v-156l-21 -344h-96z" />
<glyph unicode="#" horiz-adv-x="884" d="M76 399v111h123l49 377h-133v110h143l53 412h107l-51 -412h211l53 412h106l-51 -412h123v-110h-135l-49 -377h143v-111h-154l-49 -399h-108l49 399h-211l-49 -399h-109l49 399h-110zM305 510h213l49 377h-213z" />
<glyph unicode="$" horiz-adv-x="733" d="M88 952q0 158 58.5 228.5t175.5 85.5v159h110v-157q117 -8 174 -27v-119q-39 10 -102.5 17.5t-106.5 7.5q-96 0 -134 -41t-38 -141q0 -74 8.5 -109t27 -48t56.5 -20l164 -28q61 -10 95 -36t51.5 -86t17.5 -175q0 -154 -50 -227.5t-163 -90.5v-161h-110v157 q-55 2 -116 9.5t-97 17.5v117q35 -10 101 -16.5t124 -6.5q96 0 136 41t40 152q0 80 -8 115.5t-24.5 47t-55.5 19.5l-168 31q-94 18 -130 80.5t-36 203.5z" />
<glyph unicode="%" horiz-adv-x="1157" d="M96 1030q0 170 14.5 251t55.5 112.5t127 31.5q88 0 129 -31.5t54 -112.5t13 -251t-13 -250t-54 -111.5t-129 -31.5t-128 31.5t-54.5 111.5t-14.5 250zM201 1030q0 -145 7 -205.5t24.5 -78t60.5 -17.5t60.5 17.5t24.5 78t7 205.5t-7 206.5t-24.5 79t-60.5 17.5 q-41 0 -59.5 -17.5t-25.5 -78.5t-7 -207zM236 0l591 1409h95l-592 -1409h-94zM668 377q0 170 14 251t55 112.5t127 31.5q88 0 129 -31.5t54.5 -112.5t13.5 -251t-13.5 -250t-54.5 -111.5t-129 -31.5t-128 31.5t-54 111.5t-14 250zM772 377q0 -145 7 -205.5t24.5 -78 t60.5 -17.5t60.5 17.5t24.5 77.5t7 206q0 145 -7 206.5t-24.5 79t-60.5 17.5q-41 0 -59.5 -17.5t-25.5 -79t-7 -206.5z" />
<glyph unicode="&#x26;" horiz-adv-x="892" d="M84 375q0 164 40 236.5t128 103.5v8q-82 29 -121 106.5t-39 227.5q0 131 33 211t111.5 118.5t216.5 38.5q59 0 136 -9t136 -23v-113q-129 27 -225 27q-119 0 -176.5 -25t-76 -80t-18.5 -166q0 -123 30 -191.5t132 -68.5h94v-123h-94q-74 0 -110.5 -29.5t-49 -88 t-12.5 -158.5q0 -117 24.5 -175.5t76 -78t147.5 -19.5q76 0 127 13v659h276v-123h-141v-635q-57 -14 -137 -24t-146 -10q-145 0 -224 41t-108.5 124.5t-29.5 225.5z" />
<glyph unicode="'" horiz-adv-x="299" d="M82 1253v156h135v-156l-18 -344h-97z" />
<glyph unicode="(" horiz-adv-x="448" d="M109 608q0 262 18 414t56 251t118 249h121q-74 -143 -106.5 -231.5t-51 -245t-18.5 -437.5t18.5 -438.5t51 -246.5t106.5 -230h-121q-82 151 -120 250.5t-55 249t-17 415.5z" />
<glyph unicode=")" horiz-adv-x="448" d="M27 -307q73 141 106 230t51.5 247t18.5 438q0 281 -18.5 437.5t-51.5 245.5t-106 231h120q80 -147 118 -247.5t56.5 -251.5t18.5 -415q0 -266 -17.5 -415.5t-55.5 -249t-120 -250.5h-120z" />
<glyph unicode="*" horiz-adv-x="792" d="M92 1206l53 90l213 -141l-14 254h105l-17 -254l215 141l51 -90l-227 -114l229 -115l-53 -90l-215 139l17 -252h-105l14 252l-213 -141l-51 92l228 113z" />
<glyph unicode="+" horiz-adv-x="929" d="M117 459v121h289v288h118v-288h289v-121h-289v-289h-118v289h-289z" />
<glyph unicode="," horiz-adv-x="364" d="M70 -174q43 0 62.5 12t24.5 40t5 89v33h-60v178h158v-166q0 -106 -14.5 -158.5t-54 -75t-121.5 -22.5v70z" />
<glyph unicode="-" horiz-adv-x="569" d="M113 520v129h344v-129h-344z" />
<glyph unicode="." horiz-adv-x="364" d="M104 0v178h156v-178h-156z" />
<glyph unicode="/" horiz-adv-x="528" d="M55 -113l293 1635h125l-293 -1635h-125z" />
<glyph unicode="0" horiz-adv-x="813" d="M88 705q0 330 18.5 470t83 195t216.5 55q160 0 224 -55t79.5 -189t15.5 -476q0 -330 -18.5 -470.5t-83 -195.5t-217.5 -55q-152 0 -216.5 55t-83 195.5t-18.5 470.5zM227 705q0 -297 11.5 -412t45 -146.5t122.5 -31.5q90 0 123.5 31.5t45 146.5t11.5 412t-11.5 411.5 t-45 146t-123.5 31.5q-88 0 -122 -31.5t-45.5 -146.5t-11.5 -411z" />
<glyph unicode="1" horiz-adv-x="475" d="M49 1147v139l197 123h108v-1409h-143v1229z" />
<glyph unicode="2" horiz-adv-x="733" d="M72 0v154q0 188 6 265t32.5 126t94.5 96l219 156q57 39 76.5 91t19.5 163q0 104 -15.5 155t-53 69.5t-115.5 18.5q-100 0 -248 -18v121q49 12 129 20t150 8q98 0 159.5 -22.5t98.5 -100t37 -233.5q0 -119 -15.5 -189.5t-46.5 -111.5t-86 -80l-231 -164q-39 -25 -56 -65 q-10 -27 -12 -73t-2 -159v-96h449v-131h-590z" />
<glyph unicode="3" horiz-adv-x="702" d="M37 14v121q139 -20 235 -20q78 0 122 19.5t66.5 75.5t22.5 167q0 152 -35.5 212t-123.5 60h-158v129h158q70 0 108.5 54.5t38.5 203.5q0 111 -19.5 166t-63.5 73.5t-126 18.5q-109 0 -221 -20v121q55 14 128 22t130 8q117 0 184.5 -34.5t99 -115.5t31.5 -218 q0 -150 -38.5 -228.5t-116.5 -103.5v-8q82 -20 124 -98t42 -244q0 -137 -28 -222t-99.5 -127t-198.5 -42q-57 0 -131 9t-131 21z" />
<glyph unicode="4" horiz-adv-x="788" d="M49 330v116l275 963h145l-281 -948h287l25 526h116v-526h119v-131h-119v-330h-143v330h-424z" />
<glyph unicode="5" horiz-adv-x="733" d="M86 14v121q137 -20 229 -20t137.5 26.5t61.5 88t16 186.5q0 135 -16 193.5t-62 78t-153 19.5q-82 0 -205 -25v727h522v-131h-387v-457q55 16 156 17q121 0 183.5 -44t84 -129t21.5 -229q0 -176 -26.5 -271t-96.5 -138t-203 -43q-57 0 -131 9t-131 21z" />
<glyph unicode="6" horiz-adv-x="794" d="M88 690q0 195 6 311.5t25 180.5q37 133 112.5 188t221.5 55q49 0 113.5 -9t117.5 -23v-121q-113 23 -209 22q-115 0 -166 -41t-67.5 -152.5t-16.5 -361.5h13q20 45 68 74t145 29q109 0 165 -25.5t82.5 -109.5t26.5 -261q0 -184 -24.5 -281t-89 -139t-193.5 -42 q-92 0 -150.5 18t-96.5 68.5t-62 142.5q-12 49 -16.5 158.5t-4.5 318.5zM229 463q0 -154 15.5 -227.5t52.5 -98t113 -24.5q77 0 113 20.5t50.5 81.5t14.5 193q0 147 -13.5 208.5t-47 78t-117.5 16.5q-82 0 -120 -21.5t-49.5 -71t-11.5 -155.5z" />
<glyph unicode="7" horiz-adv-x="675" d="M39 1278v131h598v-113l-356 -1296h-146l354 1278h-450z" />
<glyph unicode="8" horiz-adv-x="817" d="M78 375q0 119 17.5 187.5t51 101t91.5 51.5v8q-78 23 -114 102.5t-36 231.5q0 139 29.5 218t99.5 114.5t191 35.5t190.5 -35.5t100 -114.5t30.5 -218q0 -152 -36 -232t-115 -102v-8q57 -18 92 -51t52 -101.5t17 -187.5q0 -143 -28.5 -227.5t-100 -124t-202.5 -39.5 q-132 0 -203.5 39.5t-99 123.5t-27.5 228zM221 379q0 -115 16.5 -171t55.5 -76.5t115 -20.5q77 0 116 20.5t55.5 76.5t16.5 171q0 121 -14.5 177t-53.5 75.5t-120 19.5q-82 0 -120 -19.5t-52.5 -75.5t-14.5 -177zM227 1036q0 -111 14.5 -165t51.5 -75.5t115 -21.5 q77 0 115 21.5t52.5 76t14.5 164.5q0 111 -14.5 165t-52.5 75.5t-115 21.5q-78 0 -116 -21.5t-51.5 -75.5t-13.5 -165z" />
<glyph unicode="9" horiz-adv-x="794" d="M70 963q0 184 23.5 281t89 139t194.5 42q139 0 206.5 -46t98.5 -173q16 -63 20.5 -173.5t4.5 -313.5q0 -213 -7.5 -333t-29.5 -187q-39 -117 -115 -166t-213 -49q-51 0 -116.5 9t-114.5 23v121q109 -23 206 -22q117 0 168.5 41t67.5 152.5t16 361.5h-12 q-45 -102 -213 -103q-111 0 -166 25.5t-81.5 109.5t-26.5 261zM205 1001q0 -147 13 -208.5t48 -78t119 -16.5q82 0 120 21.5t49 71t11 155.5q0 154 -15 227.5t-52 98t-113 24.5q-78 0 -115 -20.5t-51 -81.5t-14 -193z" />
<glyph unicode=":" horiz-adv-x="364" d="M104 0v178h156v-178h-156zM104 866v178h156v-178h-156z" />
<glyph unicode=";" horiz-adv-x="364" d="M70 -174q43 0 62.5 12t24.5 40t5 89v33h-60v178h158v-166q0 -106 -14.5 -158.5t-54 -75t-121.5 -22.5v70zM104 866v178h156v-178h-156z" />
<glyph unicode="&#x3c;" horiz-adv-x="931" d="M119 451v137l696 295v-129l-555 -236l555 -235v-127z" />
<glyph unicode="=" horiz-adv-x="929" d="M117 283v120h696v-120h-696zM117 633v121h696v-121h-696z" />
<glyph unicode="&#x3e;" horiz-adv-x="931" d="M117 156v127l555 235l-555 236v129l698 -295v-137z" />
<glyph unicode="?" horiz-adv-x="616" d="M35 1274v121q133 31 231 30q147 0 208 -76.5t61 -244.5q0 -147 -19.5 -229t-93.5 -134l-25 -18q-51 -35 -73.5 -59.5t-28.5 -51t-6 -80.5v-149h-129v184q0 70 10 109t29.5 59.5t56.5 44.5l27 21q47 33 67.5 55.5t31.5 70.5t11 140q0 90 -11 136t-47 68.5t-110 22.5 q-76 0 -190 -20zM147 0v178h154v-178h-154z" />
<glyph unicode="@" horiz-adv-x="1171" d="M106 602q0 406 24 559.5t119 208.5t339 55t339 -55t118.5 -208.5t23.5 -559.5q0 -215 -16.5 -308t-49 -116.5t-106.5 -23.5h-184l-8 118h-11q-25 -133 -155 -133q-102 0 -143.5 56.5t-41.5 205.5q0 147 39 205t144 58q70 0 161 -7v66q0 106 -10 153.5t-37.5 62.5 t-93.5 15q-78 0 -166 -18v104q88 20 201 21q94 0 142 -30t65.5 -101.5t17.5 -206.5v-487h92q31 0 45.5 18t20.5 94t6 254q0 330 -10 463t-52 194.5t-145 75.5q-70 10 -188 11q-102 0 -160 -5q-117 -10 -163 -68.5t-57 -192.5t-11 -478q0 -338 12 -472t62 -192.5t175 -70.5 q53 -6 144 -6q174 0 229 6v-84q-41 -4 -229 -4q-244 0 -339 55t-119 209t-24 559zM471 408q0 -68 7 -100t27.5 -45t61.5 -13q51 0 79 22.5t40 76.5t12 159v61h-135q-39 0 -58.5 -11t-26.5 -45t-7 -105z" />
<glyph unicode="A" horiz-adv-x="835" d="M31 0l288 1409h197l287 -1409h-144l-79 391h-328l-78 -391h-143zM272 518h287l-137 703h-12z" />
<glyph unicode="B" horiz-adv-x="827" d="M115 0v1409h329q160 0 228.5 -90t68.5 -262q0 -145 -45 -226t-141 -106v-8q113 -25 155 -111t42 -235q0 -174 -68 -272.5t-248 -98.5h-321zM256 131h166q108 0 148 57.5t40 202.5q0 143 -43 200.5t-145 57.5h-166v-518zM256 778h162q92 0 138 59.5t46 190.5 q0 96 -15.5 149.5t-55 77t-113.5 23.5h-162v-500z" />
<glyph unicode="C" horiz-adv-x="651" d="M88 705q0 315 24.5 461.5t94 202.5t221.5 56q45 0 94 -8t78 -18v-121q-70 16 -147 16q-109 0 -153 -37.5t-57.5 -152.5t-13.5 -399q0 -285 13.5 -400t57.5 -152.5t153 -37.5q90 0 151 16v-121q-33 -12 -82 -19t-94 -7q-154 0 -223.5 55t-93 201.5t-23.5 464.5z" />
<glyph unicode="D" horiz-adv-x="837" d="M115 0v1409h288q164 0 235 -54.5t91.5 -192.5t20.5 -457q0 -317 -20.5 -456.5t-91.5 -194t-235 -54.5h-288zM256 131h147q98 0 137.5 31t53.5 145.5t14 397.5t-14 397.5t-53 145t-138 30.5h-147v-1147z" />
<glyph unicode="E" horiz-adv-x="710" d="M115 0v1409h536v-131h-393v-500h344v-131h-344v-516h393v-131h-536z" />
<glyph unicode="F" horiz-adv-x="669" d="M115 0v1409h512v-131h-369v-528h328v-132h-328v-618h-143z" />
<glyph unicode="G" horiz-adv-x="813" d="M88 705q0 311 28.5 460.5t104.5 204.5t236 55q66 0 141.5 -10t126.5 -29v-120q-57 12 -119.5 20t-99.5 8q-131 0 -183.5 -30.5t-73 -149.5t-20.5 -409q0 -272 14.5 -390t58.5 -161t147 -43q86 0 145 18v494h-168v129h301v-732q-61 -16 -139 -26t-142 -10 q-152 0 -226.5 54t-103 203.5t-28.5 463.5z" />
<glyph unicode="H" horiz-adv-x="886" d="M115 0v1409h143v-629h371v629h143v-1409h-143v645h-371v-645h-143z" />
<glyph unicode="I" horiz-adv-x="387" d="M123 0v1409h141v-1409h-141z" />
<glyph unicode="J" horiz-adv-x="415" d="M16 0v125q80 4 109 21.5t36 81t7 243.5v938h143v-889q0 -264 -16 -362.5t-71.5 -127t-207.5 -30.5z" />
<glyph unicode="K" horiz-adv-x="806" d="M115 0v1409h143v-627h131l244 627h147l-276 -688l278 -721h-149l-244 647h-131v-647h-143z" />
<glyph unicode="L" horiz-adv-x="622" d="M115 0v1409h143v-1276h352v-133h-495z" />
<glyph unicode="M" horiz-adv-x="1161" d="M115 0v1409h217l243 -1171h13l246 1171h213v-1409h-140v1167h-10l-244 -1167h-151l-240 1167h-12v-1167h-135z" />
<glyph unicode="N" horiz-adv-x="888" d="M115 0v1409h145l369 -1026h10v1026h135v-1409h-139l-375 1049h-8v-1049h-137z" />
<glyph unicode="O" d="M88 705q0 328 20.5 469t91 196t234.5 55t234.5 -55t91 -196.5t20.5 -468.5q0 -328 -20.5 -469.5t-91 -196.5t-234.5 -55t-234.5 55t-91 196.5t-20.5 469.5zM229 705q0 -291 14.5 -409t53.5 -149.5t137 -31.5t137 31.5t53.5 149.5t14.5 409t-14.5 408.5t-53.5 149 t-137 31.5t-137 -31.5t-53.5 -149.5t-14.5 -408z" />
<glyph unicode="P" horiz-adv-x="786" d="M115 0v1409h334q131 0 194.5 -55.5t80.5 -146.5t17 -242q0 -145 -18 -237.5t-81.5 -150t-192.5 -57.5h-191v-520h-143zM258 651h172q76 0 112 33t47 96.5t11 184.5q0 123 -10 185t-47 95t-113 33h-172v-627z" />
<glyph unicode="Q" d="M88 705q0 328 20.5 469t91 196t234.5 55t234.5 -55t91 -196.5t20.5 -468.5q0 -313 -18.5 -452.5t-83.5 -201.5l145 -282v-5h-149l-115 232q-39 -12 -125 -12q-164 0 -234.5 55t-91 196.5t-20.5 469.5zM229 705q0 -291 14.5 -409t53.5 -149.5t137 -31.5t137 31.5 t53.5 149.5t14.5 409t-14.5 408.5t-53.5 149t-137 31.5t-137 -31.5t-53.5 -149.5t-14.5 -408z" />
<glyph unicode="R" horiz-adv-x="837" d="M115 0v1409h342q131 0 194.5 -52t82 -139.5t18.5 -232.5q0 -158 -27 -254t-115 -137l166 -594h-147l-150 561h-33h-188v-561h-143zM258 690h182q76 0 112 31t46 90t10 174t-10 173.5t-46 89t-112 30.5h-182v-588z" />
<glyph unicode="S" horiz-adv-x="735" d="M61 1036q0 209 75 299t249 90q80 0 149.5 -9t98.5 -19v-123q-35 8 -94.5 14t-116.5 6q-76 0 -119 -15t-65 -48q-20 -33 -26.5 -78t-6.5 -117q0 -96 7 -139t26.5 -60.5t66.5 -25.5l174 -37q74 -16 115 -44t63 -97q12 -29 15.5 -80t3.5 -147q0 -158 -26.5 -247t-93.5 -132 t-194 -43q-65 0 -143 8t-135 20v125q137 -22 227 -22h8q66 0 106 10t67 39q25 25 32.5 77t7.5 142q0 123 -7 168t-32.5 64.5t-97.5 33.5l-194 39q-61 12 -92 55t-39.5 111t-8.5 182z" />
<glyph unicode="T" horiz-adv-x="690" d="M25 1276v133h641v-133h-250v-1276h-142v1276h-249z" />
<glyph unicode="U" d="M104 608v801h144v-874q0 -193 10 -275t48 -113.5t128 -31.5t128 31.5t48.5 113.5t10.5 275v874h141v-801q0 -272 -18.5 -395t-87 -176t-222.5 -53q-156 0 -224.5 53t-87 176t-18.5 395z" />
<glyph unicode="V" horiz-adv-x="768" d="M12 1409h146l223 -1216h14l221 1216h140l-273 -1409h-196z" />
<glyph unicode="W" horiz-adv-x="1183" d="M20 1409h146l149 -1204h13l180 1204h172l182 -1204h12l150 1204h139l-200 -1409h-187l-180 1159h-10l-178 -1159h-187z" />
<glyph unicode="X" horiz-adv-x="815" d="M27 0l280 709l-276 700h149l226 -580h10l223 580h147l-278 -696l283 -713h-152l-227 592h-13l-227 -592h-145z" />
<glyph unicode="Y" horiz-adv-x="724" d="M-2 1409h145l217 -688h13l213 688h141l-293 -862v-547h-143v547z" />
<glyph unicode="Z" horiz-adv-x="700" d="M43 0v123l455 1155h-441v131h592v-123l-452 -1155h460v-131h-614z" />
<glyph unicode="[" horiz-adv-x="444" d="M117 -307v1829h278v-101l-145 -8v-1612l145 -8v-100h-278z" />
<glyph unicode="\" horiz-adv-x="528" d="M55 1522h125l293 -1635h-125z" />
<glyph unicode="]" horiz-adv-x="444" d="M47 -207l146 8v1612l-146 8v101h281v-1829h-281v100z" />
<glyph unicode="^" horiz-adv-x="796" d="M86 1006l244 530h137l244 -530h-129l-183 419l-184 -419h-129z" />
<glyph unicode="_" horiz-adv-x="624" d="M0 -227h625v-121h-625v121z" />
<glyph unicode="`" horiz-adv-x="208" d="M0 1511v11h139l70 -279v-10h-103z" />
<glyph unicode="a" horiz-adv-x="741" d="M53 289q0 119 21.5 183.5t71 93t141.5 28.5q63 0 221 -10v82q0 129 -14.5 184t-53.5 73.5t-131 18.5q-115 0 -213 -20v114q127 25 250 25q121 0 183.5 -35t88 -118t25.5 -244v-664h-121l-8 143h-10q-37 -159 -209 -159h-2q-88 0 -140.5 27.5t-76 93t-23.5 184.5zM184 297 q0 -80 11.5 -119t41 -55.5t91.5 -16.5q63 0 102 17.5t55 79.5q23 76 23 213v76h-189q-55 0 -83.5 -14.5t-40 -55.5t-11.5 -125z" />
<glyph unicode="b" horiz-adv-x="790" d="M104 0v1522h136v-604h12q20 76 69.5 109.5t133.5 33.5q111 0 164 -46t73.5 -158t20.5 -335q0 -225 -21.5 -337.5t-76 -156.5t-162.5 -44q-78 0 -132.5 33.5t-74.5 125.5h-13l-8 -143h-121zM240 522q0 -201 16 -286q14 -70 51 -100t103 -30q77 0 111 27t45.5 111t11.5 278 q0 195 -11.5 279t-45.5 110.5t-111 26.5q-63 0 -100.5 -28.5t-51.5 -94.5q-18 -98 -18 -293z" />
<glyph unicode="c" horiz-adv-x="610" d="M78 520q0 217 23.5 331t85 162t180.5 48q98 0 184 -23v-114q-68 18 -152 18q-82 0 -120.5 -31.5t-52 -116.5t-13.5 -270q0 -190 13.5 -276t52 -116t122.5 -30q96 0 156 21v-113q-86 -26 -186 -26q-129 0 -191.5 53t-82 162.5t-19.5 320.5z" />
<glyph unicode="d" horiz-adv-x="790" d="M78 522q0 223 20.5 335t74.5 158t163 46q86 0 135 -35t70 -108h10v604h135v-1522h-121l-8 143h-10q-20 -92 -75.5 -125.5t-133.5 -33.5q-109 0 -163 44t-75.5 156.5t-21.5 337.5zM213 522q0 -195 12.5 -278.5t46 -110.5t111.5 -27q66 0 102.5 30t49.5 100q10 59 13 126.5 t3 180.5q0 176 -14 250q-14 82 -51 113.5t-109 31.5q-76 0 -108.5 -26.5t-44 -110.5t-11.5 -279z" />
<glyph unicode="e" horiz-adv-x="749" d="M78 520q0 225 17.5 331.5t83 158t210.5 51.5q133 0 192.5 -48t75 -152.5t15.5 -338.5v-43h-459q0 -170 13.5 -244.5t55.5 -103.5t138 -29q51 0 116.5 6.5t112.5 14.5v-113q-43 -10 -114.5 -18t-139.5 -8q-141 0 -207.5 48t-88 157.5t-21.5 330.5zM213 582h330v30 q0 152 -12.5 219.5t-44 89t-99.5 21.5q-82 0 -116.5 -24.5t-46 -96t-11.5 -239.5z" />
<glyph unicode="f" horiz-adv-x="485" d="M35 926v118h121v173q0 139 26.5 202.5t86 83t180.5 19.5v-107q-68 0 -100 -12t-45 -47t-13 -109v-203h158v-118h-158v-926h-135v926h-121z" />
<glyph unicode="g" horiz-adv-x="792" d="M78 526q0 223 21.5 335t75.5 156t163 44q78 0 133 -34t76 -126h10l8 143h121v-890q0 -225 -22.5 -340t-93 -168.5t-222.5 -53.5q-115 1 -242 11v112q172 -6 218 -6q104 0 151 32t61.5 109.5t14.5 247.5v37h-10q-20 -74 -69.5 -108.5t-135.5 -34.5q-109 0 -163 45 t-74.5 156.5t-20.5 332.5zM213 526q0 -193 12.5 -275.5t46 -109t111.5 -26.5q66 0 101.5 29.5t50.5 101.5q16 80 16 280q0 190 -12 265q-14 82 -51 114.5t-105 32.5q-78 0 -111.5 -26.5t-46 -109.5t-12.5 -276z" />
<glyph unicode="h" horiz-adv-x="792" d="M104 0v1522h136v-600h12q43 139 213 139q98 0 147.5 -38t65.5 -119t16 -232v-672h-135v621q0 147 -10 210.5t-41 85t-100 21.5q-80 0 -116 -45t-44 -123t-8 -235v-535h-136z" />
<glyph unicode="i" horiz-adv-x="346" d="M102 1356v166h142v-166h-142zM104 0v1044h136v-1044h-136z" />
<glyph unicode="j" horiz-adv-x="346" d="M-10 -287q53 0 77.5 10.5t30.5 32t6 70.5v1218h136v-1161q0 -127 -23.5 -185t-73 -74.5t-153.5 -16.5v106zM102 1356v166h142v-166h-142z" />
<glyph unicode="k" horiz-adv-x="710" d="M104 0v1522h136v-934h98l199 456h139l-225 -503l233 -541h-145l-201 467h-98v-467h-136z" />
<glyph unicode="l" horiz-adv-x="346" d="M104 0v1522h136v-1522h-136z" />
<glyph unicode="m" horiz-adv-x="1226" d="M104 0v1044h121l8 -143h13q20 76 69.5 118t145.5 42q100 0 146 -37t63 -123h14q20 78 70.5 119t146.5 41t144.5 -38t65.5 -118t17 -229v-676h-135v621q0 147 -10 210.5t-39 85t-94 21.5q-80 0 -115 -42t-43 -119t-8 -242v-535h-135v621q0 147 -10.5 210.5t-38 85 t-92.5 21.5q-80 0 -116 -45t-44 -124t-8 -234v-535h-136z" />
<glyph unicode="n" horiz-adv-x="792" d="M104 0v1044h121l8 -143h13q20 76 71.5 118t147.5 42q98 0 147.5 -38t65.5 -119t16 -232v-672h-135v621q0 147 -10 210.5t-41 85t-100 21.5q-80 0 -116 -45t-44 -123t-8 -235v-535h-136z" />
<glyph unicode="o" horiz-adv-x="772" d="M78 520q0 238 19.5 346.5t83 151.5t204.5 43q143 0 205.5 -43t82 -150.5t19.5 -347.5q0 -238 -19.5 -344t-82 -149t-205.5 -43q-141 0 -204.5 43t-83 149.5t-19.5 343.5zM213 520q0 -199 10 -279.5t44 -109.5t118 -29t119 29t44 108.5t9 280.5q0 203 -9 283t-44 109.5 t-119 29.5t-118 -29.5t-44 -110.5t-10 -282z" />
<glyph unicode="p" horiz-adv-x="790" d="M104 -395v1439h121l8 -143h13q20 92 74.5 126t132.5 34q109 0 163 -44t75.5 -156.5t21.5 -338.5q0 -223 -20.5 -334.5t-74 -157.5t-163.5 -46q-84 0 -133.5 33.5t-69.5 109.5h-12v-522h-136zM240 522q0 -195 14 -266q16 -84 52 -117t104 -33q77 0 111 27t45.5 111 t11.5 278q0 195 -11.5 279t-45.5 110.5t-111 26.5q-66 0 -104 -30.5t-52 -102.5q-14 -84 -14 -283z" />
<glyph unicode="q" horiz-adv-x="790" d="M78 522q0 225 21.5 338t75.5 157t163 44q78 0 133 -34t76 -126h10l8 143h121v-1439h-135v522h-10q-20 -74 -69.5 -108.5t-135.5 -34.5q-109 0 -163 46t-74.5 157.5t-20.5 334.5zM213 522q0 -195 12.5 -278.5t46 -110.5t111.5 -27q66 0 101.5 31t52.5 107q14 86 14 278 q0 199 -16 293q-14 66 -50 94.5t-102 28.5q-78 0 -111.5 -26.5t-46 -110.5t-12.5 -279z" />
<glyph unicode="r" horiz-adv-x="501" d="M104 0v1044h121l8 -190h13q25 119 81 163t148 44v-143q-131 0 -183 -93.5t-52 -302.5v-522h-136z" />
<glyph unicode="s" horiz-adv-x="651" d="M57 758q0 170 72 236.5t213 66.5q55 0 114.5 -8.5t98.5 -18.5v-114q-33 10 -91 16t-116 6q-80 0 -117.5 -37t-37.5 -137q0 -70 7 -102.5t24.5 -45t54.5 -18.5l161 -27q55 -8 88 -32.5t49.5 -83t16.5 -168.5q0 -168 -65.5 -237.5t-213.5 -69.5q-59 0 -127.5 8t-109.5 18 v113q35 -8 98.5 -14.5t122.5 -6.5q94 0 128 44t34 137q0 78 -8.5 111.5t-25.5 46t-56 18.5l-170 28q-80 14 -112 75t-32 196z" />
<glyph unicode="t" horiz-adv-x="473" d="M35 926v118h121v304h135v-304h149v-118h-149v-926h-135v926h-121z" />
<glyph unicode="u" horiz-adv-x="792" d="M98 373v671h135v-620q0 -145 11.5 -209.5t41 -86.5t99.5 -22q80 0 116 45.5t44 123t8 235.5v534h135v-1044h-121l-8 143h-10q-20 -78 -72.5 -118.5t-148.5 -40.5q-98 0 -147.5 36.5t-66 117.5t-16.5 235z" />
<glyph unicode="v" horiz-adv-x="710" d="M31 1044h137l184 -851h10l183 851h135l-244 -1044h-164z" />
<glyph unicode="w" horiz-adv-x="1069" d="M31 1044h137l141 -847h13l141 847h147l146 -847h12l139 847h129l-194 -1044h-164l-137 793h-11l-137 -793h-166z" />
<glyph unicode="x" horiz-adv-x="714" d="M29 0l239 526l-231 518h145l172 -393h13l172 393h139l-232 -509l240 -535h-143l-183 416h-10l-182 -416h-139z" />
<glyph unicode="y" horiz-adv-x="792" d="M98 381v663h135v-612q0 -145 11.5 -209.5t41 -86t99.5 -21.5q80 0 116 45t44 122.5t8 235.5v526h135v-899q0 -217 -23.5 -330.5t-93 -168t-215.5 -54.5q-118 1 -235 11v114q80 -6 211 -6q100 0 147 36t60.5 111.5t13.5 233.5v47h-10q-20 -70 -70.5 -108.5t-148.5 -38.5 q-96 0 -144.5 38t-65 118.5t-16.5 232.5z" />
<glyph unicode="z" horiz-adv-x="638" d="M53 0v106l379 820h-366v118h518v-106l-379 -819h381v-119h-533z" />
<glyph unicode="{" horiz-adv-x="483" d="M41 567v80q74 4 105.5 76t31.5 178v246q0 115 48 220.5t124 154.5h103q-139 -143 -140 -369v-240q0 -254 -143 -301v-10q143 -47 143 -301v-240q0 -225 140 -368h-103q-76 49 -124 154.5t-48 220.5v245q0 106 -31.5 178t-105.5 76z" />
<glyph unicode="|" horiz-adv-x="411" d="M141 -330v1852h129v-1852h-129z" />
<glyph unicode="}" horiz-adv-x="483" d="M31 -307q139 143 139 368v240q0 254 143 301v10q-143 47 -143 301v240q0 225 -139 369h104q74 -49 122 -154.5t48 -220.5v-246q0 -106 32 -178t105 -76v-80q-74 -4 -105.5 -75.5t-31.5 -178.5v-245q0 -115 -48 -220.5t-122 -154.5h-104z" />
<glyph unicode="~" horiz-adv-x="854" d="M117 500q0 84 9 129t40 67.5t92 22.5q37 0 73 -10.5t69.5 -22.5t48.5 -18q14 -6 59 -21.5t78 -15.5q39 0 50 23.5t11 84.5h90q0 -84 -9 -128t-40 -66.5t-92 -22.5q-43 0 -87 12.5t-103 34.5q-35 14 -72 26.5t-66 12.5q-39 0 -50 -23.5t-11 -84.5h-90z" />
<glyph unicode="&#xa1;" horiz-adv-x="380" d="M111 -125q0 215 34 787h93q33 -598 32 -787v-240h-159v240zM113 866v178h155v-178h-155z" />
<glyph unicode="&#xa2;" horiz-adv-x="663" d="M88 700q0 213 20.5 329t72.5 169t155 64v163h110v-161q76 -4 134 -21v-121q-82 20 -158 21q-88 0 -128 -34t-53.5 -123t-13.5 -284q0 -199 12.5 -286.5t52.5 -122.5t130 -35q31 0 81 7t83 18v-119q-80 -23 -140 -25v-155h-110v155q-109 10 -162 70.5t-69.5 172.5 t-16.5 318z" />
<glyph unicode="&#xa3;" horiz-adv-x="751" d="M72 0v131h96v535h-96v131h96v139q0 180 28.5 285.5t97 154.5t189.5 49q45 0 93.5 -7t78.5 -17v-123q-66 16 -149 16q-86 0 -127 -39q-37 -37 -53.5 -109.5t-16.5 -197.5v-151h264v-131h-264v-535h361v-131h-598z" />
<glyph unicode="&#xa4;" horiz-adv-x="1038" d="M78 1325l86 86l182 -182q55 31 172 31q119 0 174 -33l182 182l84 -86l-180 -180q29 -55 38 -152.5t9 -279.5q0 -186 -9 -285.5t-38 -157.5l180 -180l-84 -86l-180 182q-57 -33 -176 -32q-117 0 -172 30l-180 -180l-86 84l180 182q-29 55 -39 156.5t-10 286.5 q0 178 10 277t39 157zM346 711q0 -211 10.5 -296t44 -116t117.5 -31t118 31t44 116t10 296q0 205 -10 287.5t-44 113.5t-118 31t-117.5 -31t-44 -114t-10.5 -287z" />
<glyph unicode="&#xa5;" horiz-adv-x="849" d="M61 1409h146l215 -686h14l213 686h139l-157 -469h127v-94h-160l-76 -219h236v-95h-262v-532h-144v532h-262v95h236l-76 219h-160v94h129z" />
<glyph unicode="&#xa6;" horiz-adv-x="411" d="M141 -330v723h129v-723h-129zM141 799v723h129v-723h-129z" />
<glyph unicode="&#xa7;" horiz-adv-x="864" d="M84 557q0 133 38 205t120 96q-45 35 -63.5 88t-18.5 148q0 186 77.5 258.5t231.5 72.5q66 0 130.5 -9t98.5 -21v-123q-37 10 -102.5 16t-124.5 6q-86 0 -128 -40t-42 -148q0 -63 8 -97t25.5 -50.5t52.5 -28.5l178 -70q82 -33 124 -62.5t66.5 -94t24.5 -185.5 q0 -135 -37.5 -206.5t-119.5 -96.5q45 -33 63.5 -85t18.5 -146q0 -188 -77 -260t-233 -72q-65 0 -128.5 7t-100.5 22v124q39 -10 104.5 -17t124.5 -7q86 0 127 40t41 150q0 63 -8 97t-26.5 49.5t-53.5 29.5l-184 74q-78 31 -118 59.5t-64.5 93t-24.5 183.5zM225 582 q0 -115 17.5 -155t58.5 -58l197 -78q29 -10 37 -10q40 0 72 54t32 159q0 113 -16.5 153.5t-47.5 52.5l-200 80q-37 14 -45 15q-41 0 -73 -54.5t-32 -158.5z" />
<glyph unicode="&#xa8;" horiz-adv-x="550" d="M39 1341v154h131v-154h-131zM381 1341v154h131v-154h-131z" />
<glyph unicode="&#xa9;" horiz-adv-x="1017" d="M127 705q0 348 20.5 486t96 186t264.5 48q190 0 266 -48t96.5 -186t20.5 -486t-20.5 -486.5t-96.5 -186.5t-266 -48q-189 0 -264.5 48t-96 186t-20.5 487zM199 705q0 -330 17 -454t75.5 -162t216.5 -38t217 38t76.5 162t17.5 454t-17.5 453.5t-76.5 161.5t-217 38 t-216.5 -38t-75.5 -162t-17 -453zM358 705q0 170 13.5 248.5t50.5 108.5t119 30q68 0 94 -13v-82q-33 8 -80 9q-51 0 -71.5 -19.5t-27.5 -78t-7 -203.5t7 -204t27.5 -78.5t71.5 -19.5t82 9v-82q-39 -12 -96 -13q-82 0 -119 30t-50.5 107.5t-13.5 250.5z" />
<glyph unicode="&#xaa;" horiz-adv-x="591" d="M55 864q0 129 37 177.5t137 48.5q18 0 154 -7v52q0 90 -10.5 129t-38 52t-90.5 13t-158 -16v92q88 20 186 20q90 0 137.5 -25.5t66 -87t18.5 -179.5v-484h-101l-6 90h-10q-23 -53 -62 -77.5t-84 -24.5q-96 0 -136 49t-40 178zM162 870q0 -78 19.5 -104.5t76.5 -26.5 q41 0 66.5 16.5t42.5 53.5q16 35 16 145v47h-129q-39 0 -57.5 -9t-26.5 -36.5t-8 -85.5z" />
<glyph unicode="&#xab;" horiz-adv-x="653" d="M57 633l160 411h102l-131 -411l131 -408h-102zM299 633l160 411h102l-131 -411l131 -408h-102z" />
<glyph unicode="&#xac;" horiz-adv-x="929" d="M117 453v122h696v-413h-125v291h-571z" />
<glyph unicode="&#xad;" horiz-adv-x="569" d="M113 520v129h344v-129h-344z" />
<glyph unicode="&#xae;" horiz-adv-x="1017" d="M127 705q0 348 20.5 486t96 186t264.5 48q190 0 266 -48t96.5 -186t20.5 -486t-20.5 -486.5t-96.5 -186.5t-266 -48q-188 0 -264 48t-96.5 186t-20.5 487zM199 705q0 -330 17 -454t75.5 -162t216.5 -38t217 38t76.5 162t17.5 454t-17.5 453.5t-76.5 161.5t-217 38 t-216.5 -38t-75.5 -162t-17 -453zM344 324v757h182q72 0 106 -27.5t44 -74.5t10 -125q0 -86 -14.5 -138t-59.5 -77l86 -315h-94l-78 294h-90v-294h-92zM436 705h78q53 0 66.5 30.5t13.5 118.5q0 84 -13.5 113.5t-68.5 29.5h-76v-292z" />
<glyph unicode="&#xaf;" horiz-adv-x="569" d="M113 1393v129h344v-129h-344z" />
<glyph unicode="&#xb0;" horiz-adv-x="571" d="M88 1118q0 133 11.5 193.5t52.5 87t135 26.5t135 -26.5t52 -87t11 -193.5t-11 -192.5t-52 -86t-135 -26.5t-135 26.5t-52.5 86t-11.5 192.5zM190 1118q0 -102 4.5 -142t24 -56.5t68.5 -16.5q47 0 66.5 16.5t23.5 56.5t4 142q0 104 -4 144.5t-23.5 57.5t-66.5 17 q-49 0 -68.5 -17t-24 -57t-4.5 -145z" />
<glyph unicode="&#xb1;" horiz-adv-x="929" d="M117 90v123h696v-123h-696zM117 698v121h289v289h118v-289h289v-121h-289v-288h-118v288h-289z" />
<glyph unicode="&#xb2;" horiz-adv-x="532" d="M94 649v86q0 96 4 141.5t17.5 72t44.5 48.5l41 29q84 57 90 61q27 20 37 47t10 78q0 74 -17.5 96.5t-72.5 22.5q-43 0 -146 -10v86q74 18 164 18q57 0 93 -13t57.5 -57t21.5 -132q0 -92 -20.5 -136.5t-67.5 -76.5q-94 -63 -123 -84q-20 -16 -26 -39t-6 -94v-52h243v-92 h-344z" />
<glyph unicode="&#xb3;" horiz-adv-x="532" d="M96 649v90q70 -12 140 -12q53 0 76.5 24.5t23.5 102.5q0 72 -18.5 102.5t-57.5 30.5h-94v94h94q33 0 51.5 27t18.5 98q0 78 -21.5 102.5t-79.5 24.5q-43 0 -129 -14v88q78 18 150 18q98 0 139 -46t41 -162q0 -72 -20.5 -112t-65.5 -63v-8q45 -18 68.5 -61t23.5 -121 q0 -117 -39 -168t-147 -51q-66 0 -154 16z" />
<glyph unicode="&#xb4;" horiz-adv-x="208" d="M0 1233v10l70 279h139v-11l-107 -278h-102z" />
<glyph unicode="&#xb5;" horiz-adv-x="800" d="M104 -389v1433h136v-620q0 -147 11 -210.5t42 -85.5t100 -22q80 0 115 45.5t43 123t8 235.5v534h135v-1044h-119l-8 143h-12q-18 -74 -62 -114.5t-135 -40.5q-66 0 -118 24v-401h-136z" />
<glyph unicode="&#xb6;" horiz-adv-x="745" d="M55 930q0 225 14.5 318t63.5 127t168 34h121v-1704h-121v750q-119 0 -168 32.5t-63.5 125t-14.5 317.5zM508 -295v1704h123v-1704h-123z" />
<glyph unicode="&#xb7;" horiz-adv-x="364" d="M104 524v178h156v-178h-156z" />
<glyph unicode="&#xb8;" horiz-adv-x="266" d="M27 -377l123 393h90v-10l-84 -393h-129v10z" />
<glyph unicode="&#xb9;" horiz-adv-x="399" d="M94 1239v98l115 72h76v-760h-101v635z" />
<glyph unicode="&#xba;" horiz-adv-x="614" d="M80 1030q0 176 14.5 254t60.5 109.5t152 31.5t152.5 -31.5t61 -109.5t14.5 -254q0 -174 -14.5 -252t-60.5 -109.5t-153 -31.5q-106 0 -152 31.5t-60.5 109.5t-14.5 252zM190 1030q0 -141 6.5 -197.5t30 -77t80.5 -20.5q58 0 81.5 20.5t30.5 78t7 196.5q0 141 -7 198.5 t-30.5 79t-81.5 21.5q-57 0 -80.5 -21.5t-30 -79t-6.5 -198.5z" />
<glyph unicode="&#xbb;" horiz-adv-x="653" d="M92 225l131 408l-131 411h103l159 -411l-159 -408h-103zM334 225l133 408l-133 411h102l160 -411l-160 -408h-102z" />
<glyph unicode="&#xbc;" horiz-adv-x="987" d="M94 1239v98l115 72h76v-760h-101v635zM121 0l573 1409h97l-574 -1409h-96zM502 164v78l143 522h103l-150 -506h143l17 283h82v-283h61v-94h-61v-164h-101v164h-237z" />
<glyph unicode="&#xbd;" horiz-adv-x="1058" d="M94 1239v98l115 72h76v-760h-101v635zM121 0l573 1409h97l-574 -1409h-96zM621 0v86q0 96 4 141t17 73t44 50q41 29 62 41q35 27 69 47q27 20 37 47t10 78q0 74 -17.5 96.5t-72.5 22.5q-43 0 -145 -10v88q82 16 164 16q57 0 93 -13t57.5 -57t21.5 -133q0 -92 -20.5 -136 t-67.5 -77q-90 -61 -119 -81q-27 -20 -32 -45t-5 -91v-51h244v-92h-344z" />
<glyph unicode="&#xbe;" horiz-adv-x="1091" d="M96 649v90q70 -12 140 -12q53 0 76.5 24.5t23.5 102.5q0 72 -18.5 102.5t-57.5 30.5h-94v94h94q33 0 51.5 27t18.5 98q0 78 -21.5 102.5t-79.5 24.5q-43 0 -129 -14v88q78 18 150 18q98 0 139 -46t41 -162q0 -72 -20.5 -112t-65.5 -63v-8q45 -18 68.5 -61t23.5 -121 q0 -117 -39 -168t-147 -51q-66 0 -154 16zM225 0l576 1409h94l-573 -1409h-97zM604 164v78l146 522h100l-148 -506h142l18 283h80v-283h64v-94h-64v-164h-100v164h-238z" />
<glyph unicode="&#xbf;" horiz-adv-x="563" d="M82 -59q0 147 20.5 230t92.5 132l63 43q47 33 59.5 62.5t12.5 103.5v150h129v-185q0 -70 -10.5 -108.5t-30 -60t-56.5 -46.5l-24 -16q-47 -33 -68.5 -56.5t-33 -71.5t-11.5 -141q0 -90 11.5 -136t47 -68.5t109.5 -22.5q72 0 191 21v-121q-53 -14 -119 -22.5t-115 -8.5 q-145 0 -206.5 76t-61.5 246zM317 866v178h154v-178h-154z" />
<glyph unicode="&#xc0;" horiz-adv-x="835" d="M31 0l288 1409h197l287 -1409h-144l-79 391h-328l-78 -391h-143zM268 1814v11h139l70 -279v-10h-103zM272 518h287l-137 703h-12z" />
<glyph unicode="&#xc1;" horiz-adv-x="835" d="M31 0l288 1409h197l287 -1409h-144l-79 391h-328l-78 -391h-143zM272 518h287l-137 703h-12zM356 1536v10l70 279h139v-11l-107 -278h-102z" />
<glyph unicode="&#xc2;" horiz-adv-x="835" d="M31 0l288 1409h197l287 -1409h-144l-79 391h-328l-78 -391h-143zM205 1536v13l137 262h150l137 -262v-13h-96l-117 191l-115 -191h-96zM272 518h287l-137 703h-12z" />
<glyph unicode="&#xc3;" horiz-adv-x="835" d="M31 0l288 1409h197l287 -1409h-144l-79 391h-328l-78 -391h-143zM168 1534q0 123 21.5 171t91.5 48q37 0 71.5 -13t79.5 -36q37 -18 61.5 -27.5t47.5 -9.5q25 0 32 22.5t7 86.5h88q0 -123 -20.5 -170t-92.5 -47q-55 0 -145 45q-39 20 -64.5 30.5t-50.5 10.5 q-23 0 -30 -24t-7 -87h-90zM272 518h287l-137 703h-12z" />
<glyph unicode="&#xc4;" horiz-adv-x="835" d="M31 0l288 1409h197l287 -1409h-144l-79 391h-328l-78 -391h-143zM182 1581v154h131v-154h-131zM272 518h287l-137 703h-12zM524 1581v154h131v-154h-131z" />
<glyph unicode="&#xc5;" horiz-adv-x="835" d="M31 0l286 1399q-59 14 -75.5 51t-16.5 125q0 78 12.5 116t52.5 56t128 18t128 -18t52 -56t12 -116q0 -84 -17.5 -123t-72.5 -51l283 -1401h-144l-79 391h-328l-78 -391h-143zM272 518h287l-137 703h-12zM328 1575q0 -47 5 -67.5t23.5 -29t61.5 -8.5q59 0 74.5 19.5 t15.5 85.5t-15.5 87t-74.5 21q-41 0 -60.5 -9t-24.5 -30.5t-5 -68.5z" />
<glyph unicode="&#xc6;" horiz-adv-x="1120" d="M-8 0l383 1409h686v-131h-469l72 -500h348v-131h-334l74 -516h309v-131h-438l-54 391h-329l-107 -391h-141zM264 518h291l-90 703h-10z" />
<glyph unicode="&#xc7;" horiz-adv-x="651" d="M88 705q0 315 24.5 461.5t94 202.5t221.5 56q45 0 94 -8t78 -18v-121q-70 16 -147 16q-109 0 -153 -37.5t-57.5 -152.5t-13.5 -399q0 -285 13.5 -400t57.5 -152.5t153 -37.5q90 0 151 16v-121q-33 -12 -82 -19t-94 -7q-41 0 -59 2l-80 -373h-129v10l119 379 q-82 25 -122 97.5t-54.5 209.5t-14.5 396z" />
<glyph unicode="&#xc8;" horiz-adv-x="710" d="M115 0v1409h536v-131h-393v-500h344v-131h-344v-516h393v-131h-536zM250 1814v11h139l70 -279v-10h-103z" />
<glyph unicode="&#xc9;" horiz-adv-x="710" d="M115 0v1409h536v-131h-393v-500h344v-131h-344v-516h393v-131h-536zM338 1536v10l70 279h139v-11l-107 -278h-102z" />
<glyph unicode="&#xca;" horiz-adv-x="710" d="M115 0v1409h536v-131h-393v-500h344v-131h-344v-516h393v-131h-536zM172 1536v13l137 262h150l137 -262v-13h-96l-117 191l-115 -191h-96z" />
<glyph unicode="&#xcb;" horiz-adv-x="710" d="M115 0v1409h536v-131h-393v-500h344v-131h-344v-516h393v-131h-536zM150 1581v154h131v-154h-131zM492 1581v154h131v-154h-131z" />
<glyph unicode="&#xcc;" horiz-adv-x="387" d="M55 1814v11h139l70 -279v-10h-103zM123 0v1409h141v-1409h-141z" />
<glyph unicode="&#xcd;" horiz-adv-x="387" d="M123 0v1409h141v-1409h-141zM125 1536v10l70 279h139v-11l-107 -278h-102z" />
<glyph unicode="&#xce;" horiz-adv-x="387" d="M-18 1536v13l137 262h150l137 -262v-13h-96l-117 191l-115 -191h-96zM123 0v1409h141v-1409h-141z" />
<glyph unicode="&#xcf;" horiz-adv-x="387" d="M-43 1581v154h131v-154h-131zM123 0v1409h141v-1409h-141zM299 1581v154h131v-154h-131z" />
<glyph unicode="&#xd0;" horiz-adv-x="837" d="M16 647v133h99v629h288q164 0 235 -54.5t91.5 -192.5t20.5 -457q0 -317 -20.5 -456.5t-91.5 -194t-235 -54.5h-288v647h-99zM256 131h147q99 0 138 31t53 145.5t14 397.5t-14 397.5t-53 145t-138 30.5h-147v-498h188v-133h-188v-516z" />
<glyph unicode="&#xd1;" horiz-adv-x="888" d="M115 0v1409h145l369 -1026h10v1026h135v-1409h-139l-375 1049h-8v-1049h-137zM195 1536q0 123 21.5 171t91.5 48q37 0 71.5 -13t79.5 -36q37 -18 61.5 -27.5t47.5 -9.5q25 0 32 22.5t7 86.5h88q0 -123 -20.5 -170t-92.5 -47q-55 0 -145 45q-39 20 -64.5 30.5t-50.5 10.5 q-23 0 -30 -24t-7 -87h-90z" />
<glyph unicode="&#xd2;" d="M88 705q0 328 20.5 469t91 196t234.5 55t234.5 -55t91 -196.5t20.5 -468.5q0 -328 -20.5 -469.5t-91 -196.5t-234.5 -55t-234.5 55t-91 196.5t-20.5 469.5zM229 705q0 -291 14.5 -409t53.5 -149.5t137 -31.5t137 31.5t53.5 149.5t14.5 409t-14.5 408.5t-53.5 149 t-137 31.5t-137 -31.5t-53.5 -149.5t-14.5 -408zM285 1814v11h139l70 -279v-10h-103z" />
<glyph unicode="&#xd3;" d="M88 705q0 328 20.5 469t91 196t234.5 55t234.5 -55t91 -196.5t20.5 -468.5q0 -328 -20.5 -469.5t-91 -196.5t-234.5 -55t-234.5 55t-91 196.5t-20.5 469.5zM229 705q0 -291 14.5 -409t53.5 -149.5t137 -31.5t137 31.5t53.5 149.5t14.5 409t-14.5 408.5t-53.5 149 t-137 31.5t-137 -31.5t-53.5 -149.5t-14.5 -408zM375 1536v10l70 279h139v-11l-107 -278h-102z" />
<glyph unicode="&#xd4;" d="M88 705q0 328 20.5 469t91 196t234.5 55t234.5 -55t91 -196.5t20.5 -468.5q0 -328 -20.5 -469.5t-91 -196.5t-234.5 -55t-234.5 55t-91 196.5t-20.5 469.5zM221 1536v13l137 262h150l137 -262v-13h-96l-117 191l-115 -191h-96zM229 705q0 -291 14.5 -409t53.5 -149.5 t137 -31.5t137 31.5t53.5 149.5t14.5 409t-14.5 408.5t-53.5 149t-137 31.5t-137 -31.5t-53.5 -149.5t-14.5 -408z" />
<glyph unicode="&#xd5;" d="M88 705q0 328 20.5 469t91 196t234.5 55t234.5 -55t91 -196.5t20.5 -468.5q0 -328 -20.5 -469.5t-91 -196.5t-234.5 -55t-234.5 55t-91 196.5t-20.5 469.5zM184 1534q0 123 21.5 171t91.5 48q37 0 71.5 -13t79.5 -36q37 -18 61.5 -27.5t47.5 -9.5q25 0 32 22.5t7 86.5h88 q0 -123 -20.5 -170t-92.5 -47q-55 0 -145 45q-39 20 -64.5 30.5t-50.5 10.5q-23 0 -30 -24t-7 -87h-90zM229 705q0 -291 14.5 -409t53.5 -149.5t137 -31.5t137 31.5t53.5 149.5t14.5 409t-14.5 408.5t-53.5 149t-137 31.5t-137 -31.5t-53.5 -149.5t-14.5 -408z" />
<glyph unicode="&#xd6;" d="M88 705q0 328 20.5 469t91 196t234.5 55t234.5 -55t91 -196.5t20.5 -468.5q0 -328 -20.5 -469.5t-91 -196.5t-234.5 -55t-234.5 55t-91 196.5t-20.5 469.5zM197 1581v154h131v-154h-131zM229 705q0 -291 14.5 -409t53.5 -149.5t137 -31.5t137 31.5t53.5 149.5t14.5 409 t-14.5 408.5t-53.5 149t-137 31.5t-137 -31.5t-53.5 -149.5t-14.5 -408zM539 1581v154h131v-154h-131z" />
<glyph unicode="&#xd7;" horiz-adv-x="837" d="M117 735l86 86l217 -219l217 217l84 -86l-215 -215l215 -217l-84 -86l-217 217l-215 -217l-86 86l215 217z" />
<glyph unicode="&#xd8;" d="M88 -113l70 201q-43 70 -56.5 206t-13.5 411q0 328 20.5 469t91 196t234.5 55q119 0 178 -24l43 121h125l-69 -201q43 -70 56 -206t13 -410q0 -328 -20.5 -469.5t-91 -196.5t-234.5 -55q-117 0 -180 24l-41 -121h-125zM229 705q0 -291 14.5 -409t53.5 -149.5t137 -31.5 t137 31.5t53.5 149.5t14.5 409t-14.5 408.5t-53.5 149t-137 31.5t-137 -31.5t-53.5 -149.5t-14.5 -408z" />
<glyph unicode="&#xd9;" d="M104 608v801h144v-874q0 -193 10 -275t48 -113.5t128 -31.5t128 31.5t48.5 113.5t10.5 275v874h141v-801q0 -272 -18.5 -395t-87 -176t-222.5 -53q-156 0 -224.5 53t-87 176t-18.5 395zM291 1814v11h139l70 -279v-10h-103z" />
<glyph unicode="&#xda;" d="M104 608v801h144v-874q0 -193 10 -275t48 -113.5t128 -31.5t128 31.5t48.5 113.5t10.5 275v874h141v-801q0 -272 -18.5 -395t-87 -176t-222.5 -53q-156 0 -224.5 53t-87 176t-18.5 395zM381 1536v10l70 279h139v-11l-107 -278h-102z" />
<glyph unicode="&#xdb;" d="M104 608v801h144v-874q0 -193 10 -275t48 -113.5t128 -31.5t128 31.5t48.5 113.5t10.5 275v874h141v-801q0 -272 -18.5 -395t-87 -176t-222.5 -53q-156 0 -224.5 53t-87 176t-18.5 395zM221 1536v13l137 262h150l137 -262v-13h-96l-117 191l-115 -191h-96z" />
<glyph unicode="&#xdc;" d="M104 608v801h144v-874q0 -193 10 -275t48 -113.5t128 -31.5t128 31.5t48.5 113.5t10.5 275v874h141v-801q0 -272 -18.5 -395t-87 -176t-222.5 -53q-156 0 -224.5 53t-87 176t-18.5 395zM197 1581v154h131v-154h-131zM539 1581v154h131v-154h-131z" />
<glyph unicode="&#xdd;" horiz-adv-x="724" d="M-2 1409h145l217 -688h13l213 688h141l-293 -862v-547h-143v547zM315 1536v10l70 279h139v-11l-107 -278h-102z" />
<glyph unicode="&#xde;" horiz-adv-x="786" d="M115 0v1409h143v-246h191q131 0 194.5 -55t80.5 -146.5t17 -242.5q0 -147 -18 -239.5t-81.5 -149t-192.5 -56.5h-191v-274h-143zM258 406h172q76 0 112 32.5t47 96t11 184.5q0 123 -10 185.5t-47 95t-113 32.5h-172v-626z" />
<glyph unicode="&#xdf;" horiz-adv-x="811" d="M104 0v1139q0 150 32 235.5t98.5 123.5t177.5 38q162 0 234.5 -72.5t72.5 -257.5q0 -133 -39 -198.5t-127 -85.5v-9q92 -23 133 -114.5t41 -292.5q0 -199 -20.5 -303.5t-83 -153.5t-189.5 -49h-72v119h52q86 0 120.5 23.5t46 99t11.5 260.5q0 145 -14.5 219t-47 102.5 t-96.5 28.5h-39v117h39q84 0 117 50t33 175q0 127 -38 175t-134 48q-66 0 -103 -23.5t-53 -81t-16 -161.5v-1151h-136z" />
<glyph unicode="&#xe0;" horiz-adv-x="741" d="M53 289q0 119 21.5 183.5t71 93t141.5 28.5q63 0 221 -10v82q0 129 -14.5 184t-53.5 73.5t-131 18.5q-115 0 -213 -20v114q127 25 250 25q121 0 183.5 -35t88 -118t25.5 -244v-664h-121l-8 143h-10q-37 -160 -211 -159q-88 0 -140.5 27.5t-76 93t-23.5 184.5zM184 297 q0 -80 11.5 -119t41 -55.5t91.5 -16.5q63 0 102 17.5t55 79.5q23 76 23 213v76h-189q-55 0 -83.5 -14.5t-40 -55.5t-11.5 -125zM221 1511v11h139l70 -279v-10h-103z" />
<glyph unicode="&#xe1;" horiz-adv-x="741" d="M53 289q0 119 21.5 183.5t71 93t141.5 28.5q63 0 221 -10v82q0 129 -14.5 184t-53.5 73.5t-131 18.5q-115 0 -213 -20v114q127 25 250 25q121 0 183.5 -35t88 -118t25.5 -244v-664h-121l-8 143h-10q-37 -160 -211 -159q-88 0 -140.5 27.5t-76 93t-23.5 184.5zM184 297 q0 -80 11.5 -119t41 -55.5t91.5 -16.5q63 0 102 17.5t55 79.5q23 76 23 213v76h-189q-55 0 -83.5 -14.5t-40 -55.5t-11.5 -125zM311 1233v10l70 279h139v-11l-107 -278h-102z" />
<glyph unicode="&#xe2;" horiz-adv-x="741" d="M53 289q0 119 21.5 183.5t71 93t141.5 28.5q63 0 221 -10v82q0 129 -14.5 184t-53.5 73.5t-131 18.5q-115 0 -213 -20v114q127 25 250 25q121 0 183.5 -35t88 -118t25.5 -244v-664h-121l-8 143h-10q-37 -160 -211 -159q-88 0 -140.5 27.5t-76 93t-23.5 184.5zM162 1247 v13l137 262h150l137 -262v-13h-96l-117 191l-115 -191h-96zM184 297q0 -80 11.5 -119t41 -55.5t91.5 -16.5q63 0 102 17.5t55 79.5q23 76 23 213v76h-189q-55 0 -83.5 -14.5t-40 -55.5t-11.5 -125z" />
<glyph unicode="&#xe3;" horiz-adv-x="741" d="M53 289q0 119 21.5 183.5t71 93t141.5 28.5q63 0 221 -10v82q0 129 -14.5 184t-53.5 73.5t-131 18.5q-115 0 -213 -20v114q127 25 250 25q121 0 183.5 -35t88 -118t25.5 -244v-664h-121l-8 143h-10q-37 -160 -211 -159q-88 0 -140.5 27.5t-76 93t-23.5 184.5zM121 1280 q0 123 21.5 171t91.5 48q37 0 71.5 -13t79.5 -36q37 -18 61.5 -27.5t47.5 -9.5q25 0 32 22.5t7 86.5h88q0 -123 -20.5 -170t-92.5 -47q-55 0 -145 45q-39 20 -64.5 30.5t-50.5 10.5q-23 0 -30 -24t-7 -87h-90zM184 297q0 -80 11.5 -119t41 -55.5t91.5 -16.5q63 0 102 17.5 t55 79.5q23 76 23 213v76h-189q-55 0 -83.5 -14.5t-40 -55.5t-11.5 -125z" />
<glyph unicode="&#xe4;" horiz-adv-x="741" d="M53 289q0 119 21.5 183.5t71 93t141.5 28.5q63 0 221 -10v82q0 129 -14.5 184t-53.5 73.5t-131 18.5q-115 0 -213 -20v114q127 25 250 25q121 0 183.5 -35t88 -118t25.5 -244v-664h-121l-8 143h-10q-37 -160 -211 -159q-88 0 -140.5 27.5t-76 93t-23.5 184.5zM137 1341 v154h131v-154h-131zM184 297q0 -80 11.5 -119t41 -55.5t91.5 -16.5q63 0 102 17.5t55 79.5q23 76 23 213v76h-189q-55 0 -83.5 -14.5t-40 -55.5t-11.5 -125zM479 1341v154h131v-154h-131z" />
<glyph unicode="&#xe5;" horiz-adv-x="741" d="M53 289q0 119 21.5 183.5t71 93t141.5 28.5q63 0 221 -10v82q0 129 -14.5 184t-53.5 73.5t-131 18.5q-115 0 -213 -20v114q127 25 250 25q121 0 183.5 -35t88 -118t25.5 -244v-664h-121l-8 143h-10q-37 -160 -211 -159q-88 0 -140.5 27.5t-76 93t-23.5 184.5zM178 1440 q0 76 12.5 115t52 57.5t128.5 18.5q88 0 127.5 -18.5t52 -57.5t12.5 -115q0 -78 -12.5 -116t-52 -56t-127.5 -18q-89 0 -128.5 18t-52 56t-12.5 116zM184 297q0 -80 11.5 -119t41 -55.5t91.5 -16.5q63 0 102 17.5t55 79.5q23 76 23 213v76h-189q-55 0 -83.5 -14.5t-40 -55.5 t-11.5 -125zM280 1440q0 -47 5.5 -67.5t24 -29.5t61.5 -9q59 0 74.5 20.5t15.5 85.5q0 66 -15.5 86.5t-74.5 20.5q-43 0 -61.5 -9.5t-24 -30t-5.5 -67.5z" />
<glyph unicode="&#xe6;" horiz-adv-x="1179" d="M53 289q0 115 21.5 179t71 92t141.5 28q152 0 221 -2v80q0 129 -14.5 184t-53.5 73.5t-131 18.5q-98 0 -213 -20v114q127 25 250 25q94 0 148.5 -24.5t83.5 -88.5q33 59 89 86t152 27q133 0 192.5 -47t75 -151.5t15.5 -334.5v-43h-459q0 -172 12.5 -247.5t55.5 -105.5 t139 -30q51 0 117.5 6.5t111.5 14.5v-113q-45 -10 -116.5 -18t-137.5 -8q-109 0 -169 33.5t-91 117.5q-35 -92 -100.5 -121.5t-155.5 -29.5q-96 0 -151.5 27.5t-80 93t-24.5 184.5zM184 297q0 -82 11.5 -122t41 -56.5t91.5 -16.5q63 0 102 19.5t57 85.5q20 74 21 207v71 h-189q-57 0 -84.5 -13t-39 -53t-11.5 -122zM643 588h330v24q0 152 -13.5 220.5t-44 89t-98.5 20.5q-82 0 -116.5 -23.5t-46 -94t-11.5 -236.5z" />
<glyph unicode="&#xe7;" horiz-adv-x="610" d="M78 520q0 217 23.5 331t85 162t180.5 48q98 0 184 -23v-114q-68 18 -152 18q-82 0 -120.5 -31.5t-52 -116.5t-13.5 -270q0 -190 13.5 -276t52 -116t122.5 -30q97 1 156 21v-113q-86 -27 -186 -26h-23l-80 -371h-129v10l117 375q-76 20 -115 81.5t-51 163t-12 277.5z" />
<glyph unicode="&#xe8;" horiz-adv-x="749" d="M78 520q0 225 17.5 331.5t83 158t210.5 51.5q133 0 192.5 -48t75 -152.5t15.5 -338.5v-43h-459q0 -170 13.5 -244.5t55.5 -103.5t138 -29q51 0 116.5 6.5t112.5 14.5v-113q-43 -10 -114.5 -18t-139.5 -8q-141 0 -207.5 48t-88 157.5t-21.5 330.5zM213 582h330v30 q0 152 -12.5 219.5t-44 89t-99.5 21.5q-82 0 -116.5 -24.5t-46 -96t-11.5 -239.5zM238 1511v11h139l70 -279v-10h-103z" />
<glyph unicode="&#xe9;" horiz-adv-x="749" d="M78 520q0 225 17.5 331.5t83 158t210.5 51.5q133 0 192.5 -48t75 -152.5t15.5 -338.5v-43h-459q0 -170 13.5 -244.5t55.5 -103.5t138 -29q51 0 116.5 6.5t112.5 14.5v-113q-43 -10 -114.5 -18t-139.5 -8q-141 0 -207.5 48t-88 157.5t-21.5 330.5zM213 582h330v30 q0 152 -12.5 219.5t-44 89t-99.5 21.5q-82 0 -116.5 -24.5t-46 -96t-11.5 -239.5zM340 1233v10l70 279h139v-11l-107 -278h-102z" />
<glyph unicode="&#xea;" horiz-adv-x="749" d="M78 520q0 225 17.5 331.5t83 158t210.5 51.5q133 0 192.5 -48t75 -152.5t15.5 -338.5v-43h-459q0 -170 13.5 -244.5t55.5 -103.5t138 -29q51 0 116.5 6.5t112.5 14.5v-113q-43 -10 -114.5 -18t-139.5 -8q-141 0 -207.5 48t-88 157.5t-21.5 330.5zM174 1247v13l137 262 h150l137 -262v-13h-96l-117 191l-115 -191h-96zM213 582h330v30q0 152 -12.5 219.5t-44 89t-99.5 21.5q-82 0 -116.5 -24.5t-46 -96t-11.5 -239.5z" />
<glyph unicode="&#xeb;" horiz-adv-x="749" d="M78 520q0 225 17.5 331.5t83 158t210.5 51.5q133 0 192.5 -48t75 -152.5t15.5 -338.5v-43h-459q0 -170 13.5 -244.5t55.5 -103.5t138 -29q51 0 116.5 6.5t112.5 14.5v-113q-43 -10 -114.5 -18t-139.5 -8q-141 0 -207.5 48t-88 157.5t-21.5 330.5zM152 1341v154h131v-154 h-131zM213 582h330v30q0 152 -12.5 219.5t-44 89t-99.5 21.5q-82 0 -116.5 -24.5t-46 -96t-11.5 -239.5zM494 1341v154h131v-154h-131z" />
<glyph unicode="&#xec;" horiz-adv-x="346" d="M31 1511v11h139l70 -279v-10h-103zM104 0v1044h136v-1044h-136z" />
<glyph unicode="&#xed;" horiz-adv-x="346" d="M104 0v1044h136v-1044h-136zM104 1233v10l70 279h139v-11l-107 -278h-102z" />
<glyph unicode="&#xee;" horiz-adv-x="346" d="M-39 1247v13l137 262h150l137 -262v-13h-96l-117 191l-115 -191h-96zM104 0v1044h136v-1044h-136z" />
<glyph unicode="&#xef;" horiz-adv-x="346" d="M-63 1341v154h131v-154h-131zM104 0v1044h136v-1044h-136zM279 1341v154h131v-154h-131z" />
<glyph unicode="&#xf0;" horiz-adv-x="772" d="M78 520q0 229 17.5 337t74.5 156t186 48q104 0 158 -55l8 4q-33 160 -88 286l-182 -26v94l141 20q-16 31 -80 129v9h142q53 -74 73 -117l146 22v-94l-105 -16q82 -193 109 -457q14 -137 14 -305q0 -256 -16.5 -365.5t-78.5 -157.5t-210 -48q-145 0 -208.5 45t-82 150.5 t-18.5 340.5zM213 520q0 -199 8 -276.5t43 -109.5t121 -32q88 0 122 32t42 108.5t8 277.5q0 184 -8 263t-44 119t-120 40q-88 0 -122 -28.5t-42 -107.5t-8 -286z" />
<glyph unicode="&#xf1;" horiz-adv-x="792" d="M104 0v1044h121l8 -143h13q20 76 71.5 118t147.5 42q98 0 147.5 -38t65.5 -119t16 -232v-672h-135v621q0 147 -10 210.5t-41 85t-100 21.5q-80 0 -116 -45t-44 -123t-8 -235v-535h-136zM156 1280q0 123 21.5 171t91.5 48q37 0 71.5 -13t79.5 -36q37 -18 61.5 -27.5 t47.5 -9.5q25 0 32 22.5t7 86.5h88q0 -123 -20.5 -170t-92.5 -47q-55 0 -145 45q-39 20 -64.5 30.5t-50.5 10.5q-23 0 -30 -24t-7 -87h-90z" />
<glyph unicode="&#xf2;" horiz-adv-x="772" d="M78 520q0 238 19.5 346.5t83 151.5t204.5 43q143 0 205.5 -43t82 -150.5t19.5 -347.5q0 -238 -19.5 -344t-82 -149t-205.5 -43q-141 0 -204.5 43t-83 149.5t-19.5 343.5zM213 520q0 -199 10 -279.5t44 -109.5t118 -29t119 29t44 108.5t9 280.5q0 203 -9 283t-44 109.5 t-119 29.5t-118 -29.5t-44 -110.5t-10 -282zM236 1511v11h139l70 -279v-10h-103z" />
<glyph unicode="&#xf3;" horiz-adv-x="772" d="M78 520q0 238 19.5 346.5t83 151.5t204.5 43q143 0 205.5 -43t82 -150.5t19.5 -347.5q0 -238 -19.5 -344t-82 -149t-205.5 -43q-141 0 -204.5 43t-83 149.5t-19.5 343.5zM213 520q0 -199 10 -279.5t44 -109.5t118 -29t119 29t44 108.5t9 280.5q0 203 -9 283t-44 109.5 t-119 29.5t-118 -29.5t-44 -110.5t-10 -282zM313 1233v10l70 279h139v-11l-107 -278h-102z" />
<glyph unicode="&#xf4;" horiz-adv-x="772" d="M78 520q0 238 19.5 346.5t83 151.5t204.5 43q143 0 205.5 -43t82 -150.5t19.5 -347.5q0 -238 -19.5 -344t-82 -149t-205.5 -43q-141 0 -204.5 43t-83 149.5t-19.5 343.5zM178 1247v13l137 262h150l137 -262v-13h-96l-117 191l-115 -191h-96zM213 520q0 -199 10 -279.5 t44 -109.5t118 -29t119 29t44 108.5t9 280.5q0 203 -9 283t-44 109.5t-119 29.5t-118 -29.5t-44 -110.5t-10 -282z" />
<glyph unicode="&#xf5;" horiz-adv-x="772" d="M78 520q0 238 19.5 346.5t83 151.5t204.5 43q143 0 205.5 -43t82 -150.5t19.5 -347.5q0 -238 -19.5 -344t-82 -149t-205.5 -43q-141 0 -204.5 43t-83 149.5t-19.5 343.5zM137 1280q0 123 21.5 171t91.5 48q37 0 71.5 -13t79.5 -36q37 -18 61.5 -27.5t47.5 -9.5 q25 0 32 22.5t7 86.5h88q0 -123 -20.5 -170t-92.5 -47q-55 0 -145 45q-39 20 -64.5 30.5t-50.5 10.5q-23 0 -30 -24t-7 -87h-90zM213 520q0 -199 10 -279.5t44 -109.5t118 -29t119 29t44 108.5t9 280.5q0 203 -9 283t-44 109.5t-119 29.5t-118 -29.5t-44 -110.5t-10 -282z " />
<glyph unicode="&#xf6;" horiz-adv-x="772" d="M78 520q0 238 19.5 346.5t83 151.5t204.5 43q143 0 205.5 -43t82 -150.5t19.5 -347.5q0 -238 -19.5 -344t-82 -149t-205.5 -43q-141 0 -204.5 43t-83 149.5t-19.5 343.5zM154 1341v154h131v-154h-131zM213 520q0 -199 10 -279.5t44 -109.5t118 -29t119 29t44 108.5 t9 280.5q0 203 -9 283t-44 109.5t-119 29.5t-118 -29.5t-44 -110.5t-10 -282zM496 1341v154h131v-154h-131z" />
<glyph unicode="&#xf7;" horiz-adv-x="929" d="M117 459v121h696v-121h-696zM397 123v135h135v-135h-135zM397 778v135h135v-135h-135z" />
<glyph unicode="&#xf8;" horiz-adv-x="772" d="M78 -113l65 174q-41 51 -53 153.5t-12 305.5q0 238 19.5 346.5t83 151.5t204.5 43q88 0 137 -21l45 117h125l-65 -174q41 -53 53 -155.5t12 -307.5q0 -238 -19.5 -344t-82 -149t-205.5 -43q-88 0 -135 20l-45 -117h-127zM213 520q0 -199 10 -279.5t44 -109.5t118 -29 t119 29t44 108.5t9 280.5q0 203 -9 283t-44 109.5t-119 29.5t-118 -29.5t-44 -110.5t-10 -282z" />
<glyph unicode="&#xf9;" horiz-adv-x="792" d="M98 373v671h135v-620q0 -145 11.5 -209.5t41 -86.5t99.5 -22q80 0 116 45.5t44 123t8 235.5v534h135v-1044h-121l-8 143h-10q-20 -78 -72.5 -118.5t-148.5 -40.5q-98 0 -147.5 36.5t-66 117.5t-16.5 235zM254 1511v11h139l70 -279v-10h-103z" />
<glyph unicode="&#xfa;" horiz-adv-x="792" d="M98 373v671h135v-620q0 -145 11.5 -209.5t41 -86.5t99.5 -22q80 0 116 45.5t44 123t8 235.5v534h135v-1044h-121l-8 143h-10q-20 -78 -72.5 -118.5t-148.5 -40.5q-98 0 -147.5 36.5t-66 117.5t-16.5 235zM338 1233v10l70 279h139v-11l-107 -278h-102z" />
<glyph unicode="&#xfb;" horiz-adv-x="792" d="M98 373v671h135v-620q0 -145 11.5 -209.5t41 -86.5t99.5 -22q80 0 116 45.5t44 123t8 235.5v534h135v-1044h-121l-8 143h-10q-20 -78 -72.5 -118.5t-148.5 -40.5q-98 0 -147.5 36.5t-66 117.5t-16.5 235zM182 1247v13l137 262h150l137 -262v-13h-96l-117 191l-115 -191 h-96z" />
<glyph unicode="&#xfc;" horiz-adv-x="792" d="M98 373v671h135v-620q0 -145 11.5 -209.5t41 -86.5t99.5 -22q80 0 116 45.5t44 123t8 235.5v534h135v-1044h-121l-8 143h-10q-20 -78 -72.5 -118.5t-148.5 -40.5q-98 0 -147.5 36.5t-66 117.5t-16.5 235zM156 1341v154h131v-154h-131zM498 1341v154h131v-154h-131z" />
<glyph unicode="&#xfd;" horiz-adv-x="792" d="M98 381v663h135v-612q0 -145 11.5 -209.5t41 -86t99.5 -21.5q80 0 116 45t44 122.5t8 235.5v526h135v-899q0 -217 -23.5 -330.5t-93 -168t-215.5 -54.5q-118 1 -235 11v114q80 -6 211 -6q100 0 147 36t60.5 111.5t13.5 233.5v47h-10q-20 -70 -70.5 -108.5t-148.5 -38.5 q-96 0 -144.5 38t-65 118.5t-16.5 232.5zM342 1233v10l70 279h139v-11l-107 -278h-102z" />
<glyph unicode="&#xfe;" horiz-adv-x="790" d="M104 -389v1911h136v-607h12q18 78 68.5 112t132.5 34q109 0 163 -44t75.5 -156.5t21.5 -338.5q0 -223 -20.5 -334.5t-74 -157.5t-163.5 -46q-84 0 -133.5 33.5t-69.5 109.5h-12v-516h-136zM240 522q0 -182 12 -256q18 -90 54 -125t104 -35q77 0 111 27t45.5 111t11.5 278 q0 195 -11.5 279t-45.5 110.5t-111 26.5q-68 0 -105 -33t-51 -112q-14 -76 -14 -271z" />
<glyph unicode="&#xff;" horiz-adv-x="792" d="M98 381v663h135v-612q0 -145 11.5 -209.5t41 -86t99.5 -21.5q80 0 116 45t44 122.5t8 235.5v526h135v-899q0 -217 -23.5 -330.5t-93 -168t-215.5 -54.5q-118 1 -235 11v114q80 -6 211 -6q100 0 147 36t60.5 111.5t13.5 233.5v47h-10q-20 -70 -70.5 -108.5t-148.5 -38.5 q-96 0 -144.5 38t-65 118.5t-16.5 232.5zM158 1341v154h131v-154h-131zM500 1341v154h131v-154h-131z" />
<glyph unicode="&#x152;" horiz-adv-x="1226" d="M88 705q0 319 20.5 457t91 192.5t234.5 54.5h735v-131h-366q-53 0 -107 8q47 -53 64.5 -169t19.5 -339h338v-131h-338q-2 -233 -19.5 -352t-64.5 -172q45 8 107 8h366v-131h-735q-164 0 -234.5 54.5t-91 192.5t-20.5 458zM229 705q0 -283 14.5 -397.5t53.5 -145.5 t137 -31t137 31t53.5 145.5t14.5 397.5t-14.5 397.5t-53.5 145t-137 30.5t-137 -30.5t-53.5 -145.5t-14.5 -397z" />
<glyph unicode="&#x153;" horiz-adv-x="1228" d="M78 520q0 238 19.5 346.5t83 151.5t204.5 43q102 0 157.5 -25.5t84.5 -89.5q31 59 88 87t153 28q133 0 192.5 -48t75 -152.5t15.5 -338.5v-43h-459q0 -170 13.5 -244.5t55.5 -103.5t138 -29q53 0 122 6.5t107 14.5v-113q-43 -10 -114.5 -18t-139.5 -8q-98 0 -156.5 27.5 t-88.5 92.5q-29 -68 -84.5 -94t-159.5 -26q-141 0 -204.5 43t-83 149.5t-19.5 343.5zM213 520q0 -199 10 -279.5t44 -109.5t118 -29t119 29t44 108.5t9 280.5q0 203 -9 283t-44 109.5t-119 29.5t-118 -29.5t-44 -110.5t-10 -282zM692 582h330v30q0 152 -12.5 219.5t-44 89 t-99.5 21.5q-82 0 -116.5 -24.5t-46 -96t-11.5 -239.5z" />
<glyph unicode="&#x178;" horiz-adv-x="724" d="M-2 1409h145l217 -688h13l213 688h141l-293 -862v-547h-143v547zM131 1581v154h131v-154h-131zM473 1581v154h131v-154h-131z" />
<glyph unicode="&#x2c6;" horiz-adv-x="423" d="M0 1247v13l137 262h150l137 -262v-13h-96l-117 191l-115 -191h-96z" />
<glyph unicode="&#x2dc;" horiz-adv-x="499" d="M0 1280q0 123 21.5 171t91.5 48q37 0 71.5 -13t79.5 -36q37 -18 61.5 -27.5t47.5 -9.5q25 0 32 22.5t7 86.5h88q0 -123 -20.5 -170t-92.5 -47q-55 0 -145 45q-39 20 -64.5 30.5t-50.5 10.5q-23 0 -30 -24t-7 -87h-90z" />
<glyph unicode="&#x2000;" horiz-adv-x="912" />
<glyph unicode="&#x2001;" horiz-adv-x="1825" />
<glyph unicode="&#x2002;" horiz-adv-x="912" />
<glyph unicode="&#x2003;" horiz-adv-x="1825" />
<glyph unicode="&#x2004;" horiz-adv-x="608" />
<glyph unicode="&#x2005;" horiz-adv-x="456" />
<glyph unicode="&#x2006;" horiz-adv-x="304" />
<glyph unicode="&#x2007;" horiz-adv-x="304" />
<glyph unicode="&#x2008;" horiz-adv-x="228" />
<glyph unicode="&#x2009;" horiz-adv-x="365" />
<glyph unicode="&#x200a;" horiz-adv-x="101" />
<glyph unicode="&#x2010;" horiz-adv-x="569" d="M113 520v129h344v-129h-344z" />
<glyph unicode="&#x2011;" horiz-adv-x="569" d="M113 520v129h344v-129h-344z" />
<glyph unicode="&#x2012;" horiz-adv-x="569" d="M113 520v129h344v-129h-344z" />
<glyph unicode="&#x2013;" horiz-adv-x="843" d="M109 561v123h624v-123h-624z" />
<glyph unicode="&#x2014;" horiz-adv-x="1632" d="M109 561v123h1415v-123h-1415z" />
<glyph unicode="&#x2018;" horiz-adv-x="321" d="M78 999v162q0 102 14 153.5t53 73t119 21.5v-68q-61 0 -77.5 -26.5t-16.5 -110.5v-33h61v-172h-153z" />
<glyph unicode="&#x2019;" horiz-adv-x="321" d="M57 999v68q62 0 78.5 26.5t16.5 110.5v31h-62v174h154v-162q0 -102 -14.5 -153.5t-53.5 -73t-119 -21.5z" />
<glyph unicode="&#x201a;" horiz-adv-x="358" d="M70 -170q59 0 75.5 26.5t16.5 110.5v33h-60v174h152v-162q0 -102 -13.5 -154.5t-52 -74t-118.5 -21.5v68z" />
<glyph unicode="&#x201c;" horiz-adv-x="579" d="M78 999v162q0 102 14 153.5t53 73t119 21.5v-68q-61 0 -77.5 -26.5t-16.5 -110.5v-33h61v-172h-153zM338 999v162q0 102 13.5 153.5t52 73t118.5 21.5v-68q-59 0 -75.5 -26.5t-16.5 -110.5v-33h59v-172h-151z" />
<glyph unicode="&#x201d;" horiz-adv-x="579" d="M57 999v68q62 0 78.5 26.5t16.5 110.5v31h-62v174h154v-162q0 -102 -14.5 -153.5t-53.5 -73t-119 -21.5zM317 999v68q62 0 77.5 26.5t15.5 110.5v31h-60v174h152v-162q0 -102 -13.5 -153.5t-52.5 -73t-119 -21.5z" />
<glyph unicode="&#x201e;" horiz-adv-x="618" d="M70 -170q59 0 75.5 26.5t16.5 110.5v33h-60v174h152v-162q0 -102 -13.5 -154.5t-52 -74t-118.5 -21.5v68zM328 -170q61 0 77.5 26.5t16.5 110.5v33h-62v174h154v-162q0 -102 -14.5 -154.5t-53 -74t-118.5 -21.5v68z" />
<glyph unicode="&#x2022;" horiz-adv-x="526" d="M96 700q0 82 9.5 114t42 44t112.5 12q84 0 118 -12t43 -44t9 -114q0 -77 -9 -108t-43 -43t-118 -12q-80 0 -112.5 12t-42 43t-9.5 108z" />
<glyph unicode="&#x2026;" horiz-adv-x="1091" d="M104 0v178h156v-178h-156zM469 0v178h154v-178h-154zM834 0v178h153v-178h-153z" />
<glyph unicode="&#x202f;" horiz-adv-x="365" />
<glyph unicode="&#x2039;" horiz-adv-x="411" d="M57 633l160 411h102l-131 -411l131 -408h-102z" />
<glyph unicode="&#x203a;" horiz-adv-x="411" d="M92 225l131 408l-131 411h103l159 -411l-159 -408h-103z" />
<glyph unicode="&#x205f;" horiz-adv-x="456" />
<glyph unicode="&#x20ac;" horiz-adv-x="749" d="M68 504v94h90v219h-90v94h92q8 215 38.5 323.5t99.5 149.5t200 41q47 0 96 -8t78 -18v-121q-72 16 -150 16q-94 0 -137 -25.5t-61.5 -104.5t-22.5 -253h303v-94h-303v-219h303v-94h-303q4 -176 21.5 -256t61.5 -106.5t138 -26.5q88 0 154 16v-121q-35 -12 -84 -19t-94 -7 q-136 0 -203.5 41t-98 150.5t-36.5 328.5h-92z" />
<glyph unicode="&#x2122;" horiz-adv-x="948" d="M61 1343v66h287v-66h-106v-557h-72v557h-109zM424 786v623h113l92 -506h8l90 506h111v-623h-68v500h-8l-92 -500h-78l-92 500h-8v-500h-68z" />
<glyph unicode="&#x25fc;" horiz-adv-x="1044" d="M0 0v1044h1044v-1044h-1044z" />
</font>
</defs>
</svg>
